<svg id="visual" viewBox="0 0 1280 720" width="1280" height="720" xmlns="http://www.w3.org/2000/svg" xmlns:xlink="http://www.w3.org/1999/xlink" version="1.1"><rect x="0" y="0" width="1280" height="720" fill="#001122"></rect><path d="M0 278L30.5 261.5C61 245 122 212 183 217.7C244 223.3 305 267.7 366 296.3C427 325 488 338 548.8 320.3C609.7 302.7 670.3 254.3 731.2 253.7C792 253 853 300 914 294.8C975 289.7 1036 232.3 1097 215.3C1158 198.3 1219 221.7 1249.5 233.3L1280 245L1280 721L1249.5 721C1219 721 1158 721 1097 721C1036 721 975 721 914 721C853 721 792 721 731.2 721C670.3 721 609.7 721 548.8 721C488 721 427 721 366 721C305 721 244 721 183 721C122 721 61 721 30.5 721L0 721Z" fill="#0031c9"></path><path d="M0 235L30.5 258.8C61 282.7 122 330.3 183 350.5C244 370.7 305 363.3 366 346.8C427 330.3 488 304.7 548.8 293.2C609.7 281.7 670.3 284.3 731.2 291.5C792 298.7 853 310.3 914 314.2C975 318 1036 314 1097 324.5C1158 335 1219 360 1249.5 372.5L1280 385L1280 721L1249.5 721C1219 721 1158 721 1097 721C1036 721 975 721 914 721C853 721 792 721 731.2 721C670.3 721 609.7 721 548.8 721C488 721 427 721 366 721C305 721 244 721 183 721C122 721 61 721 30.5 721L0 721Z" fill="#0055de"></path><path d="M0 325L30.5 336.2C61 347.3 122 369.7 183 377.5C244 385.3 305 378.7 366 382C427 385.3 488 398.7 548.8 399.2C609.7 399.7 670.3 387.3 731.2 391.8C792 396.3 853 417.7 914 416.5C975 415.3 1036 391.7 1097 369.3C1158 347 1219 326 1249.5 315.5L1280 305L1280 721L1249.5 721C1219 721 1158 721 1097 721C1036 721 975 721 914 721C853 721 792 721 731.2 721C670.3 721 609.7 721 548.8 721C488 721 427 721 366 721C305 721 244 721 183 721C122 721 61 721 30.5 721L0 721Z" fill="#0074ed"></path><path d="M0 471L30.5 467.8C61 464.7 122 458.3 183 444.3C244 430.3 305 408.7 366 403.5C427 398.3 488 409.7 548.8 402.3C609.7 395 670.3 369 731.2 359.3C792 349.7 853 356.3 914 375.7C975 395 1036 427 1097 438.2C1158 449.3 1219 439.7 1249.5 434.8L1280 430L1280 721L1249.5 721C1219 721 1158 721 1097 721C1036 721 975 721 914 721C853 721 792 721 731.2 721C670.3 721 609.7 721 548.8 721C488 721 427 721 366 721C305 721 244 721 183 721C122 721 61 721 30.5 721L0 721Z" fill="#0091f7"></path><path d="M0 431L30.5 437C61 443 122 455 183 458.2C244 461.3 305 455.7 366 446.8C427 438 488 426 548.8 436.3C609.7 446.7 670.3 479.3 731.2 497.2C792 515 853 518 914 508.3C975 498.7 1036 476.3 1097 476.8C1158 477.3 1219 500.7 1249.5 512.3L1280 524L1280 721L1249.5 721C1219 721 1158 721 1097 721C1036 721 975 721 914 721C853 721 792 721 731.2 721C670.3 721 609.7 721 548.8 721C488 721 427 721 366 721C305 721 244 721 183 721C122 721 61 721 30.5 721L0 721Z" fill="#00acfd"></path><path d="M0 491L30.5 484.5C61 478 122 465 183 474.7C244 484.3 305 516.7 366 524.3C427 532 488 515 548.8 501.3C609.7 487.7 670.3 477.3 731.2 480.5C792 483.7 853 500.3 914 512C975 523.7 1036 530.3 1097 538.3C1158 546.3 1219 555.7 1249.5 560.3L1280 565L1280 721L1249.5 721C1219 721 1158 721 1097 721C1036 721 975 721 914 721C853 721 792 721 731.2 721C670.3 721 609.7 721 548.8 721C488 721 427 721 366 721C305 721 244 721 183 721C122 721 61 721 30.5 721L0 721Z" fill="#00c6ff"></path><path d="M0 548L30.5 550.8C61 553.7 122 559.3 183 564.2C244 569 305 573 366 572.8C427 572.7 488 568.3 548.8 563.2C609.7 558 670.3 552 731.2 543.7C792 535.3 853 524.7 914 532.2C975 539.7 1036 565.3 1097 572C1158 578.7 1219 566.3 1249.5 560.2L1280 554L1280 721L1249.5 721C1219 721 1158 721 1097 721C1036 721 975 721 914 721C853 721 792 721 731.2 721C670.3 721 609.7 721 548.8 721C488 721 427 721 366 721C305 721 244 721 183 721C122 721 61 721 30.5 721L0 721Z" fill="#00dcf3"></path><path d="M0 636L30.5 632.8C61 629.7 122 623.3 183 620C244 616.7 305 616.3 366 612.5C427 608.7 488 601.3 548.8 599.8C609.7 598.3 670.3 602.7 731.2 599C792 595.3 853 583.7 914 577.7C975 571.7 1036 571.3 1097 573C1158 574.7 1219 578.3 1249.5 580.2L1280 582L1280 721L1249.5 721C1219 721 1158 721 1097 721C1036 721 975 721 914 721C853 721 792 721 731.2 721C670.3 721 609.7 721 548.8 721C488 721 427 721 366 721C305 721 244 721 183 721C122 721 61 721 30.5 721L0 721Z" fill="#00eec3"></path><path d="M0 686L30.5 685C61 684 122 682 183 680.5C244 679 305 678 366 671.8C427 665.7 488 654.3 548.8 653C609.7 651.7 670.3 660.3 731.2 657.8C792 655.3 853 641.7 914 640C975 638.3 1036 648.7 1097 652.3C1158 656 1219 653 1249.5 651.5L1280 650L1280 721L1249.5 721C1219 721 1158 721 1097 721C1036 721 975 721 914 721C853 721 792 721 731.2 721C670.3 721 609.7 721 548.8 721C488 721 427 721 366 721C305 721 244 721 183 721C122 721 61 721 30.5 721L0 721Z" fill="#00fa82"></path></svg>